<?xml version="1.0" standalone="no"?>
<!DOCTYPE svg PUBLIC "-//W3C//DTD SVG 20010904//EN"
 "http://www.w3.org/TR/2001/REC-SVG-20010904/DTD/svg10.dtd">
<svg version="1.0" xmlns="http://www.w3.org/2000/svg"
 width="300.000000pt" height="401.000000pt" viewBox="0 0 300.000000 401.000000"
 preserveAspectRatio="xMidYMid meet">
<metadata>
Created by potrace 1.10, written by Peter Selinger 2001-2011
</metadata>
<g transform="translate(0.000000,401.000000) scale(0.100000,-0.100000)"
fill="#000000" stroke="none">
<path d="M1520 3845 c-117 -23 -219 -74 -279 -138 -19 -21 -32 -26 -76 -26
-61 0 -122 -26 -155 -68 l-22 -28 44 -7 c83 -15 138 -79 138 -162 0 -89 -3
-93 -77 -99 -51 -4 -86 -15 -157 -50 -93 -47 -219 -149 -231 -187 -10 -30 -19
-24 -43 26 -12 25 -26 43 -31 40 -15 -10 -41 84 -41 150 0 117 62 234 147 278
l47 24 -34 21 c-44 26 -90 35 -140 27 -30 -5 -49 -1 -82 16 -56 30 -174 36
-250 14 -50 -14 -168 -88 -168 -104 0 -4 24 -8 53 -8 84 -2 177 -63 192 -127
3 -12 16 -75 30 -139 26 -122 59 -223 77 -234 6 -4 6 -9 -3 -15 -10 -6 -8 -14
13 -36 14 -15 50 -55 79 -88 l54 -60 -5 -60 -5 -60 -55 58 c-30 31 -71 83 -90
115 -29 47 -40 57 -62 57 -41 -1 -66 -30 -119 -141 l-49 -102 22 -42 c47 -88
191 -203 281 -226 21 -5 27 -11 22 -23 -4 -9 -9 -31 -12 -48 -3 -20 -13 -35
-25 -39 -23 -7 -33 -31 -59 -144 -14 -56 -27 -90 -40 -101 -32 -24 -58 -138
-66 -286 l-6 -133 36 -15 c52 -22 64 -19 116 23 112 93 253 172 335 188 l39 7
-7 -57 c-6 -52 4 -75 18 -43 3 6 3 1 -1 -13 -4 -14 -7 -33 -7 -42 0 -24 -9
-16 -52 49 -28 41 -40 53 -42 40 -5 -26 24 -107 58 -160 l29 -47 -19 -42 c-28
-63 -26 -100 10 -138 17 -18 30 -36 30 -40 0 -5 5 -12 11 -16 18 -10 2 45 -18
64 -15 15 -14 17 12 28 15 6 62 10 104 8 56 -2 68 -1 46 6 -20 5 7 7 80 4 138
-5 167 7 207 87 55 110 62 155 68 412 0 10 4 16 9 13 14 -9 51 39 72 94 30 79
34 170 10 260 -12 47 -15 79 -10 86 5 6 10 36 12 66 1 39 6 54 14 51 7 -3 10
-9 7 -14 -3 -5 0 -8 7 -7 7 2 17 -10 23 -27 6 -16 19 -39 29 -50 9 -10 15 -25
13 -32 -3 -7 -1 -13 5 -13 6 0 8 -4 4 -9 -3 -5 0 -13 6 -16 5 -4 8 -13 6 -20
-4 -8 4 -12 21 -12 15 0 36 -3 47 -8 12 -5 17 -5 12 1 -5 5 -23 15 -40 22 -30
12 -31 12 -4 7 19 -4 26 -2 22 5 -3 5 -18 11 -33 11 l-27 1 30 8 30 8 -30 2
c-26 1 -27 3 -10 10 18 8 18 9 -5 9 -19 1 -21 4 -11 10 11 7 9 10 -10 14 -19
3 -17 5 9 6 24 1 35 7 41 24 8 20 10 18 20 -19 6 -22 14 -54 17 -72 4 -21 16
-36 35 -46 16 -8 29 -10 29 -5 0 5 4 9 9 9 5 0 15 -33 22 -72 7 -40 21 -89 31
-108 22 -42 23 -57 3 -40 -22 19 -18 3 6 -21 14 -14 19 -30 17 -52 -2 -20 2
-32 10 -33 6 -1 16 -2 21 -3 5 0 13 -10 16 -21 3 -11 11 -20 17 -20 7 0 7 4 0
13 -8 10 -6 16 9 26 12 7 23 10 26 7 10 -9 -60 -115 -116 -177 l-54 -60 -17
28 c-9 15 -24 34 -34 42 -14 12 -16 12 -10 -4 5 -13 4 -16 -4 -11 -9 6 -9 1 0
-18 6 -14 15 -26 20 -26 5 0 4 10 -2 23 -11 22 -11 22 9 -2 12 -13 21 -27 21
-31 0 -16 -102 -73 -170 -94 -81 -26 -103 -42 -45 -33 22 4 78 25 125 48 66
33 102 59 160 118 41 42 84 95 95 118 21 43 35 47 35 11 0 -33 -57 -113 -122
-172 -68 -62 -192 -129 -271 -146 -70 -16 -88 -10 -81 27 3 15 1 39 -5 53 -10
23 -11 22 -8 -14 3 -31 1 -35 -9 -22 -9 13 -12 5 -13 -46 -1 -39 -7 -68 -16
-78 -21 -23 -20 -25 18 -51 28 -20 30 -21 15 -3 -26 30 -22 37 10 17 l27 -17
-21 25 c-17 18 -20 29 -13 47 4 12 7 28 5 35 -1 6 -1 9 1 5 13 -23 155 16 251
69 71 39 180 137 214 191 l23 37 8 -65 c4 -36 6 -82 3 -103 -4 -34 -1 -40 27
-58 37 -22 93 -25 134 -7 133 59 423 312 423 369 0 48 -62 151 -141 232 -43
45 -79 84 -79 86 0 2 -20 32 -45 66 -49 69 -142 158 -159 152 -6 -2 -28 31
-48 72 -48 95 -99 155 -126 147 -11 -4 -24 0 -31 8 -9 11 3 21 71 54 46 23
100 44 122 48 l39 7 -6 58 c-7 76 -78 226 -142 297 l-46 51 -52 -18 c-78 -27
-167 -74 -223 -119 l-51 -40 -32 34 c-19 18 -48 39 -66 46 l-33 11 29 51 c16
28 41 74 54 101 74 152 280 285 441 285 30 0 54 4 54 9 0 18 -75 74 -135 103
-119 55 -274 71 -415 43z m303 -24 c83 -22 147 -51 190 -87 l29 -24 -34 0
c-19 0 -60 -7 -93 -15 -161 -42 -283 -151 -388 -346 -68 -125 -147 -233 -191
-262 -20 -14 -28 -14 -62 -2 -21 8 -57 14 -79 15 -39 0 -41 1 -58 49 -17 49
-17 49 9 101 37 74 51 166 35 221 -17 57 -70 107 -122 115 -49 8 -46 21 11 53
32 18 58 24 95 24 43 -1 55 3 85 31 51 47 89 72 151 96 131 52 291 64 422 31z
m-1293 -178 c34 -16 56 -20 91 -16 47 5 119 -11 119 -27 0 -5 -9 -11 -20 -15
-10 -3 -40 -29 -64 -56 -80 -89 -107 -232 -67 -349 19 -53 19 -54 0 -78 -10
-14 -19 -30 -19 -36 0 -7 -16 -10 -45 -8 -41 4 -47 8 -64 41 -21 43 -44 125
-66 241 -21 113 -30 133 -77 175 -43 39 -72 53 -133 64 l-40 7 48 28 c80 47
115 56 207 53 63 -1 97 -8 130 -24z m1536 -491 c20 -41 37 -87 38 -102 1 -16
4 -26 9 -23 4 2 7 -4 7 -14 0 -10 3 -28 6 -40 5 -19 -1 -23 -52 -38 -98 -28
-150 -60 -266 -158 -65 -55 -151 -177 -170 -240 -20 -70 -46 -75 -83 -18 -13
22 -52 69 -86 105 -34 36 -58 66 -54 66 4 0 36 -28 72 -62 64 -61 75 -62 23
-2 -42 47 -69 67 -93 69 -19 2 -22 7 -19 35 7 62 53 185 98 257 82 132 239
256 397 314 l52 19 42 -47 c24 -26 59 -80 79 -121z m-938 103 c-12 -24 -24
-42 -27 -40 -2 3 -17 -17 -32 -44 -26 -44 -111 -131 -130 -131 -4 0 -24 10
-44 21 -44 26 -108 22 -153 -10 -20 -14 -33 -18 -37 -11 -10 16 142 161 203
193 77 42 151 66 199 67 l43 0 -22 -45z m376 -21 c9 -3 13 -10 10 -15 -3 -5 1
-7 8 -4 7 3 30 -9 50 -26 l38 -30 -61 -72 c-35 -42 -78 -109 -102 -160 -39
-80 -44 -87 -66 -81 -46 10 -336 15 -384 6 -31 -6 -47 -6 -45 0 2 6 22 12 45
14 83 8 227 80 292 148 18 19 39 32 46 30 14 -6 39 21 31 34 -3 5 5 19 18 31
13 12 26 19 28 14 3 -4 3 -2 2 4 -3 10 64 113 73 113 1 0 8 -3 17 -6z m-386
-77 c7 -18 12 -43 12 -55 0 -20 5 -22 48 -22 55 0 122 -17 122 -30 0 -18 -105
-93 -175 -126 -38 -18 -89 -36 -112 -40 l-41 -6 -4 58 c-2 33 -7 66 -11 74 -6
11 5 25 38 48 26 18 56 52 72 82 16 27 30 50 33 50 4 0 11 -15 18 -33z m-468
-66 c6 -16 22 -39 35 -51 21 -20 22 -25 11 -44 -17 -28 -20 -99 -6 -126 11
-20 10 -21 -12 -15 -37 11 -99 57 -127 94 -14 19 -38 47 -52 62 l-26 28 23 5
c12 3 35 1 50 -4 26 -10 43 -1 44 23 0 12 31 57 40 57 4 0 13 -13 20 -29z
m702 -33 c-6 -6 -15 -8 -19 -4 -4 4 -1 11 7 16 19 12 27 3 12 -12z m-461 -13
c37 -19 69 -70 69 -108 0 -147 -213 -189 -258 -52 -37 112 84 214 189 160z
m-474 -102 c12 -32 80 -127 117 -162 38 -37 47 -57 20 -47 -8 3 -13 2 -9 -3 3
-5 -3 -23 -12 -40 -17 -29 -17 -31 2 -51 17 -16 26 -18 53 -11 20 6 30 6 27 0
-4 -5 -1 -9 4 -9 6 0 11 -5 11 -11 0 -5 -5 -7 -11 -3 -8 4 -8 0 0 -15 7 -11
18 -21 26 -21 8 0 15 -4 15 -10 0 -16 -17 -12 -90 25 -76 38 -192 141 -242
213 -35 50 -33 70 12 125 34 40 67 48 77 20z m278 -109 c8 3 18 -1 24 -8 9
-11 0 -18 -38 -35 -27 -11 -52 -21 -55 -21 -3 0 -6 20 -6 45 l0 46 31 -16 c17
-9 37 -14 44 -11z m569 -3 c7 -11 -107 -89 -143 -98 -14 -3 -35 -11 -46 -16
-11 -6 -65 -12 -120 -13 -112 -1 -351 -41 -376 -61 -13 -11 -18 -10 -32 5 -16
18 -15 21 15 55 41 46 178 103 208 87 34 -18 95 -12 133 14 20 14 46 26 59 29
45 8 297 7 302 -2z m134 -6 c1 -1 -1 -23 -4 -48 -6 -41 -10 -47 -31 -47 -37 0
-63 18 -56 37 6 15 5 15 -17 0 -14 -9 -40 -17 -59 -17 l-34 0 39 28 c21 16 45
36 53 46 11 13 23 15 60 10 25 -4 47 -8 49 -9z m-1025 -106 c64 -73 95 -98
202 -156 53 -28 70 -43 67 -56 -2 -10 3 -29 12 -42 l15 -23 -62 14 c-135 32
-301 145 -349 239 -15 28 -14 34 6 83 21 52 21 52 36 30 8 -12 41 -52 73 -89z
m1532 90 c10 -15 -1 -23 -20 -15 -9 3 -13 10 -10 16 8 13 22 13 30 -1z m-22
-52 l6 -22 -16 23 c-15 21 -16 21 -28 5 -8 -10 -17 -15 -21 -10 -4 4 1 15 12
26 22 21 39 13 47 -22z m110 1 c41 -51 87 -139 87 -168 0 -25 -1 -25 -46 5
-63 43 -86 30 -34 -20 l31 -29 -33 -17 c-31 -16 -32 -16 -56 12 -23 28 -55 38
-66 20 -3 -4 6 -19 19 -31 33 -31 31 -41 -7 -33 -21 4 -29 3 -24 -5 4 -6 14
-9 24 -6 9 2 7 -1 -5 -7 -19 -10 -25 -7 -51 22 -26 29 -32 32 -46 20 -15 -13
-14 -17 11 -44 27 -28 27 -30 6 -24 -13 3 -23 1 -23 -4 0 -5 -6 -9 -13 -9 -7
0 -22 -6 -33 -14 -19 -14 -19 -15 0 -29 13 -9 15 -16 8 -21 -18 -11 -52 13
-52 37 -1 12 -9 45 -19 74 l-18 52 29 52 c35 65 34 64 53 49 12 -10 16 -9 21
4 3 9 4 25 1 36 -4 16 18 50 26 39 2 -2 11 -17 20 -32 23 -35 41 -25 33 18 -5
25 -3 34 10 39 11 4 18 0 21 -14 5 -19 23 -26 36 -14 3 3 2 16 -3 29 -7 19 -4
26 13 39 33 23 43 20 80 -26z m-703 -38 c0 -41 -51 -97 -96 -106 -38 -7 -58 2
-28 12 33 12 74 57 74 81 0 20 16 34 48 42 1 1 2 -12 2 -29z m529 -15 c0 -18
-1 -17 -13 5 -8 14 -12 29 -9 33 8 12 23 -14 22 -38z m-589 18 c-1 -19 -29
-56 -56 -74 -40 -26 -85 -25 -113 5 l-22 23 34 16 c19 9 45 21 58 26 29 12 99
14 99 4z m120 -44 c0 -93 -99 -149 -175 -99 l-30 20 36 -2 c58 -2 129 62 129
117 0 13 4 14 20 5 13 -7 20 -21 20 -41z m108 -130 c3 -40 -1 -81 -8 -98 -9
-23 -8 -38 6 -80 25 -79 16 -218 -20 -296 l-27 -60 -20 25 c-42 53 -92 136
-129 214 -21 45 -51 92 -65 106 -25 24 -32 25 -148 25 -138 0 -217 -17 -335
-71 -56 -25 -74 -30 -78 -20 -3 8 6 26 20 41 14 14 28 41 32 58 4 18 14 47 22
64 16 33 16 33 34 13 10 -11 28 -21 38 -21 11 -1 26 -2 33 -3 6 -1 16 -7 20
-13 10 -15 53 -17 62 -3 3 6 -2 10 -12 10 -10 1 -43 9 -73 20 -65 22 -81 47
-56 85 18 27 43 31 92 13 27 -10 40 -8 99 16 77 31 104 29 129 -9 14 -22 15
-29 4 -53 -11 -23 -21 -28 -72 -34 -63 -8 -88 -21 -61 -32 9 -3 13 -2 10 4 -4
6 15 10 48 10 52 0 88 18 99 51 16 47 163 -83 213 -187 15 -33 30 -54 32 -47
8 22 -50 118 -110 180 -42 44 -72 66 -99 73 -21 6 -38 15 -38 21 0 22 -50 59
-79 59 -40 0 -45 12 -17 39 l23 22 16 -25 c9 -13 31 -27 49 -31 18 -4 39 -16
46 -26 22 -32 71 -52 115 -46 62 8 117 72 117 136 l0 31 42 -46 c40 -43 43
-50 46 -115z m-584 90 c-2 -4 -28 -1 -57 7 -28 7 -74 12 -102 9 -64 -6 -41 1
60 18 78 13 80 13 92 -7 6 -11 9 -24 7 -27z m36 28 c0 -29 18 -47 47 -47 35 0
27 -13 -20 -32 -44 -19 -74 -22 -101 -12 -23 9 -1 34 30 34 26 0 32 26 14 61
-9 16 -7 19 10 19 14 0 20 -7 20 -23z m87 -7 c-19 -16 -40 -30 -46 -30 -9 0
-31 39 -31 56 0 2 25 4 55 4 l56 0 -34 -30z m753 10 c0 -5 -4 -10 -10 -10 -5
0 -10 5 -10 10 0 6 5 10 10 10 6 0 10 -4 10 -10z m-1085 -28 c6 -4 8 -22 5
-41 -5 -31 -6 -33 -19 -17 -13 15 -13 19 0 27 11 7 11 9 -3 9 -11 0 -15 5 -12
15 7 17 14 18 29 7z m130 -6 l50 -13 -35 -21 c-40 -25 -44 -26 -71 -12 -19 10
-26 40 -12 53 8 9 9 9 68 -7z m-92 -15 c-3 -12 4 -25 21 -38 19 -15 22 -23 14
-31 -9 -9 -18 -6 -35 10 -22 21 -30 57 -16 71 12 13 21 7 16 -12z m1356 -75
c12 -18 21 -42 21 -52 -1 -13 -5 -10 -14 11 -7 17 -26 45 -42 64 -23 28 -25
32 -7 23 12 -7 31 -27 42 -46z m124 -23 c66 -68 88 -96 112 -142 16 -33 16
-34 -4 -54 l-20 -21 -25 27 c-26 28 -60 35 -72 16 -3 -6 6 -23 20 -38 32 -33
32 -37 0 -57 -25 -17 -26 -16 -54 14 -51 56 -89 35 -44 -23 15 -20 25 -37 23
-39 -2 -2 -14 -9 -27 -15 -20 -11 -26 -8 -56 24 -54 57 -100 37 -56 -23 22
-30 20 -52 -3 -52 -7 0 -25 -7 -41 -15 -16 -9 -31 -14 -33 -11 -7 7 28 36 43
36 8 0 14 5 14 11 0 6 -14 9 -31 7 -30 -3 -32 -1 -48 52 -20 63 -78 181 -95
193 -8 5 -7 10 4 17 26 17 35 11 58 -35 34 -71 69 -49 39 25 -13 35 -13 39 2
43 9 3 23 8 32 11 12 5 21 -5 37 -44 11 -27 26 -50 32 -50 18 0 24 32 11 64
-24 58 -24 63 1 71 39 13 42 11 53 -28 12 -43 23 -50 39 -25 7 12 7 27 -3 53
-11 33 -11 38 6 50 10 8 21 15 24 15 3 0 31 -26 62 -57z m-1475 18 c23 -20 29
-41 12 -41 -6 0 -16 -12 -22 -26 -11 -24 -13 -25 -25 -8 -14 19 -17 52 -7 78
8 20 14 20 42 -3z m1236 -24 c30 -39 60 -107 48 -107 -5 0 -18 19 -28 42 -10
23 -30 55 -42 70 -13 15 -19 28 -13 28 5 0 21 -15 35 -33z m-102 -48 c15 -19
30 -50 33 -69 6 -34 5 -33 -21 15 -14 28 -36 61 -48 74 -13 15 -16 22 -7 19 8
-2 27 -20 43 -39z m-1258 -27 c3 -5 -1 -26 -9 -48 -8 -21 -14 -62 -15 -91 0
-43 -3 -51 -15 -47 -16 7 -16 19 7 137 10 53 20 68 32 49z m93 -16 c1 0 -5
-12 -13 -26 l-15 -25 6 25 c5 21 4 22 -5 8 -6 -10 -18 -18 -25 -18 -8 0 -15
-4 -15 -10 0 -5 6 -7 14 -4 17 6 27 -18 15 -37 -7 -11 -9 -10 -9 4 0 10 -4 16
-9 13 -5 -3 -8 -17 -8 -31 0 -26 -19 -55 -34 -55 -13 0 -11 21 7 101 l16 70
36 -7 c21 -4 38 -7 39 -8z m1131 -83 c43 -84 75 -179 86 -256 7 -47 7 -48 -15
-45 -16 2 -26 12 -31 33 -4 17 -21 84 -37 151 -17 66 -37 137 -46 157 -28 67
2 39 43 -40z m-768 32 c0 -2 -5 -16 -12 -30 -9 -19 -14 -22 -21 -13 -6 9 -7 6
-4 -10 5 -19 2 -23 -16 -20 -14 2 -23 11 -25 26 -4 29 -22 29 -19 0 3 -33 -39
-38 -53 -6 -10 22 -10 22 -7 -4 6 -39 -36 -55 -48 -18 -8 25 -25 26 -18 1 3
-10 0 -22 -7 -26 -7 -4 -14 1 -17 14 -3 12 -9 21 -14 21 -5 0 -7 -11 -3 -25 8
-32 -13 -34 -26 -2 -9 22 -9 22 -9 1 -1 -31 24 -50 44 -34 22 18 20 -12 -5
-78 -11 -29 -20 -78 -21 -110 l-1 -57 -26 55 c-27 57 -34 136 -19 211 7 34 12
38 70 57 58 19 144 37 212 45 17 2 33 5 38 6 4 0 7 -1 7 -4z m69 -29 c32 -32
32 -34 20 -80 -12 -47 -7 -172 8 -212 6 -16 4 -17 -9 -7 -26 22 -79 150 -85
207 -7 65 3 126 20 126 7 0 28 -15 46 -34z m54 15 c20 -8 87 -97 87 -116 0 -3
-13 1 -30 10 -28 14 -57 51 -52 68 1 4 -1 6 -6 5 -4 -2 -18 7 -32 20 -26 24
-12 30 33 13z m1077 -47 c33 -38 50 -73 50 -102 0 -9 -12 3 -26 28 -14 25 -33
54 -43 65 -25 28 -34 45 -23 45 6 0 24 -16 42 -36z m-1720 4 c0 -13 -9 -46
-20 -74 -10 -29 -22 -93 -26 -143 -6 -79 -9 -89 -22 -79 -18 15 -12 87 17 198
29 110 32 120 42 120 5 0 9 -10 9 -22z m1863 -27 c69 -74 137 -188 137 -230 0
-27 -69 -100 -188 -198 -128 -106 -216 -163 -251 -163 -4 0 -11 31 -14 70 -7
83 -39 202 -77 285 l-27 61 24 11 c23 11 25 9 44 -35 19 -43 34 -61 51 -62 15
0 19 48 8 90 -10 37 -9 44 7 56 29 22 39 17 52 -26 9 -29 17 -40 31 -40 15 0
20 7 20 30 0 16 -5 40 -11 54 -10 22 -9 28 12 45 32 27 34 26 53 -14 20 -41
34 -51 49 -36 9 9 7 23 -5 59 -17 45 -17 47 4 69 12 13 25 23 28 23 4 0 28
-22 53 -49z m-1683 -13 c0 -27 -14 -37 -33 -23 -18 13 -18 14 0 24 24 14 33
14 33 -1z m324 -35 c6 -43 56 -164 79 -193 10 -12 11 -22 2 -48 -6 -18 -15
-29 -20 -25 -4 5 -5 2 -1 -5 5 -7 5 -34 1 -59 -6 -44 -7 -45 -22 -23 -16 22
-23 23 -94 5 -24 -6 -26 -4 -38 49 -13 59 -56 149 -100 206 -14 19 -24 40 -22
45 2 6 4 24 6 40 2 25 7 30 31 32 16 0 45 5 64 10 19 6 51 9 71 9 35 -1 37 -3
43 -43z m1103 15 c29 -32 53 -83 53 -110 0 -17 -6 -11 -21 22 -11 24 -31 59
-45 77 -28 37 -18 45 13 11z m-1472 -12 c18 -17 22 -26 14 -32 -7 -4 -18 1
-26 11 -12 17 -18 14 -14 -7 0 -5 -4 -8 -10 -8 -6 0 -8 -9 -4 -21 4 -13 3 -19
-2 -16 -5 4 -10 -1 -10 -9 0 -9 6 -13 16 -9 12 5 12 3 -2 -13 -21 -23 -11 -90
10 -68 4 4 2 16 -5 26 -15 25 -15 31 1 28 8 -2 11 10 9 40 -3 39 8 55 23 32 4
-6 10 -8 14 -6 4 3 7 -4 8 -14 1 -11 -2 -22 -8 -25 -5 -4 -9 -24 -9 -46 0 -29
-5 -41 -17 -45 -10 -3 -26 -10 -35 -15 -25 -13 -27 -12 -26 20 2 68 -37 70
-46 2 -5 -38 -11 -51 -27 -56 -11 -4 -23 -4 -26 -1 -7 6 24 226 32 235 3 2 15
0 27 -6 18 -8 27 -6 42 8 26 25 40 24 71 -5z m563 -8 c32 -18 45 -31 52 -58
13 -46 13 -50 -5 -44 -18 7 -105 -34 -105 -49 0 -7 -5 -5 -10 3 -15 23 -13
157 3 163 19 8 20 8 65 -15z m807 -34 c30 -32 58 -104 53 -135 -3 -19 -11 -8
-40 52 -19 42 -40 79 -47 83 -6 4 -11 11 -11 17 0 17 21 9 45 -17z m-1155
-156 c42 -85 50 -128 25 -148 -11 -9 -15 -9 -15 -1 0 7 -5 9 -10 6 -6 -4 -18
-1 -27 7 -17 14 -23 14 -32 1 -3 -5 -35 -21 -71 -36 -72 -30 -180 -98 -252
-158 l-47 -40 -8 28 c-10 36 -10 272 1 298 7 19 8 19 18 2 7 -14 17 -17 40
-12 31 7 31 7 24 -29 -4 -21 -3 -36 3 -36 15 0 51 50 51 71 0 12 13 24 36 34
51 21 53 20 43 -22 -8 -40 -6 -49 10 -39 13 9 41 65 41 85 0 9 11 -2 23 -24
30 -53 57 -59 58 -13 2 50 6 81 14 106 11 33 27 15 75 -80z m466 35 c28 -57
29 -61 26 -198 -2 -93 -8 -157 -19 -190 -24 -74 -70 -161 -90 -170 -10 -5 -88
-9 -173 -10 -86 -2 -175 -6 -198 -10 -37 -6 -42 -5 -42 12 0 11 8 36 18 57 16
32 20 35 31 22 10 -12 9 -16 -6 -25 -16 -9 -15 -10 7 -11 14 0 67 -3 119 -7
106 -6 200 9 245 40 53 37 66 84 66 252 0 144 -10 248 -26 289 -16 42 15 4 42
-51z m-649 -15 c-3 -22 -11 -46 -17 -52 -9 -8 -10 -5 -4 14 4 14 7 45 6 70 -1
37 1 42 10 26 5 -10 8 -36 5 -58z m546 30 c-28 -31 -45 -66 -38 -78 12 -19 21
-10 48 45 15 30 31 55 35 55 12 0 22 -85 22 -181 0 -56 -4 -80 -15 -89 -8 -7
-18 -30 -21 -51 -4 -22 -10 -39 -15 -39 -4 0 -21 21 -36 48 -15 26 -31 50 -36
53 -5 4 -2 20 7 37 18 35 20 52 7 52 -12 0 -51 -93 -60 -143 l-7 -42 -20 39
c-20 38 -20 39 -2 124 18 86 27 107 35 85 9 -26 25 -13 20 16 -5 21 -1 33 16
48 46 42 94 58 60 21z m733 -25 c40 -96 75 -224 81 -297 l6 -79 -29 7 c-39 10
-53 23 -47 46 6 23 -23 250 -39 305 -11 38 -12 39 -19 15 -6 -21 -7 -22 -8 -4
-1 20 16 44 31 44 4 0 15 -17 24 -37z m-1547 -72 c-15 -62 -18 -226 -6 -283 6
-29 5 -38 -6 -38 -29 0 -49 26 -51 67 -5 108 31 329 58 345 17 11 20 -30 5
-91z m148 50 c-6 -44 -26 -96 -33 -88 -3 3 -1 22 5 44 6 21 11 51 11 66 0 18
4 26 11 21 7 -4 9 -22 6 -43z m507 -224 c10 -26 33 -63 51 -83 40 -42 47 -58
32 -73 -16 -16 -69 -14 -94 4 -11 8 -31 40 -44 70 -22 53 -39 71 -39 40 0 -18
20 -66 37 -86 20 -24 -9 -46 -44 -33 -36 13 -64 73 -71 149 l-5 65 49 1 c27 0
58 4 69 9 25 10 37 -2 59 -63z m120 -12 c3 -13 24 -44 45 -69 57 -66 60 -82
20 -122 -45 -44 -75 -47 -97 -11 -14 23 -15 29 -3 36 10 6 21 0 39 -20 34 -41
40 -28 7 15 -23 30 -28 50 -34 120 -5 62 -3 82 5 79 7 -2 15 -15 18 -28z m110
-10 c7 -27 6 -29 -9 -14 -9 9 -13 23 -9 33 8 21 9 19 18 -19z m-148 -63 c-13
-12 -16 8 -9 49 l8 44 3 -44 c2 -23 1 -46 -2 -49z m138 22 c3 -9 6 -28 6 -42
l-1 -27 -14 25 c-16 28 -19 60 -6 60 5 0 12 -7 15 -16z m-356 -126 c9 -2 12
-16 10 -38 l-3 -35 -47 47 c-39 39 -98 131 -98 152 0 3 28 -23 63 -58 34 -35
68 -65 75 -68z m13 25 c13 -15 12 -15 -8 -4 -24 12 -29 21 -14 21 5 0 15 -7
22 -17z m115 -8 c16 -8 27 -15 24 -16 -29 -5 -57 -5 -88 1 l-37 8 33 1 c17 0
32 6 32 11 0 13 2 13 36 -5z m81 -44 c9 -25 8 -31 -5 -36 -15 -5 -21 0 -42 37
-7 11 -6 18 3 21 25 11 33 6 44 -22z m-160 13 c-3 -3 -2 -17 3 -30 7 -19 6
-24 -5 -24 -10 0 -15 10 -15 30 0 17 5 30 12 30 6 0 9 -3 5 -6z m101 -24 l23
-30 -25 0 c-23 0 -42 32 -30 52 7 12 8 11 32 -22z m-46 -5 c4 -19 1 -25 -13
-25 -11 0 -19 4 -19 9 0 5 -3 16 -6 25 -4 11 0 16 14 16 13 0 21 -8 24 -25z"/>
<path d="M1940 3290 c0 -5 3 -10 8 -10 4 0 18 -18 32 -40 13 -22 30 -42 37
-44 7 -3 13 -15 13 -26 0 -11 5 -20 10 -20 19 0 10 17 -41 84 -52 67 -59 74
-59 56z"/>
<path d="M2056 3127 c3 -10 9 -15 12 -12 3 3 0 11 -7 18 -10 9 -11 8 -5 -6z"/>
<path d="M2010 3106 c0 -2 8 -10 18 -17 15 -13 16 -12 3 4 -13 16 -21 21 -21
13z"/>
<path d="M2066 3092 c-3 -5 1 -9 9 -9 8 0 12 4 9 9 -3 4 -7 8 -9 8 -2 0 -6 -4
-9 -8z"/>
<path d="M1920 3020 c0 -5 5 -10 11 -10 5 0 7 5 4 10 -3 6 -8 10 -11 10 -2 0
-4 -4 -4 -10z"/>
<path d="M2010 3024 c0 -6 7 -19 16 -30 14 -18 14 -18 3 6 -14 31 -19 36 -19
24z"/>
<path d="M1955 2985 c0 -12 6 -21 16 -21 11 0 14 6 11 20 -4 14 -2 17 9 11 8
-5 11 -4 6 0 -16 18 -42 12 -42 -10z"/>
<path d="M2069 2993 c5 -10 9 -21 10 -25 2 -12 15 -4 17 10 1 6 -2 10 -7 6 -5
-3 -9 2 -9 10 0 9 -5 16 -10 16 -7 0 -7 -6 -1 -17z"/>
<path d="M1896 2956 c3 -9 11 -16 16 -16 13 0 5 23 -10 28 -7 2 -10 -2 -6 -12z"/>
<path d="M1857 2934 c3 -8 10 -13 15 -12 16 6 14 21 -4 24 -11 1 -15 -3 -11
-12z"/>
<path d="M1830 2925 c0 -5 5 -17 10 -25 5 -8 10 -10 10 -5 0 6 -5 17 -10 25
-5 8 -10 11 -10 5z"/>
<path d="M1940 2899 c0 -5 5 -7 10 -4 6 3 10 8 10 11 0 2 -4 4 -10 4 -5 0 -10
-5 -10 -11z"/>
<path d="M1867 2869 c4 -13 8 -18 11 -10 2 7 -1 18 -6 23 -8 8 -9 4 -5 -13z"/>
<path d="M1787 2835 c2 -8 11 -11 19 -8 16 6 11 16 -11 19 -8 1 -11 -4 -8 -11z"/>
<path d="M1745 2830 c3 -5 8 -10 11 -10 2 0 4 5 4 10 0 6 -5 10 -11 10 -5 0
-7 -4 -4 -10z"/>
<path d="M1735 2800 c3 -5 8 -10 11 -10 2 0 4 5 4 10 0 6 -5 10 -11 10 -5 0
-7 -4 -4 -10z"/>
<path d="M1590 2646 c0 -8 5 -18 10 -21 6 -3 10 1 10 9 0 8 -4 18 -10 21 -5 3
-10 -1 -10 -9z"/>
<path d="M1620 2585 c0 -8 2 -15 4 -15 2 0 6 7 10 15 3 8 1 15 -4 15 -6 0 -10
-7 -10 -15z"/>
<path d="M1550 2556 c0 -11 48 -56 59 -56 6 0 -2 14 -19 30 -29 29 -40 35 -40
26z"/>
<path d="M1460 3146 c0 -2 8 -10 18 -17 15 -13 16 -12 3 4 -13 16 -21 21 -21
13z"/>
<path d="M1446 3113 c-6 -14 -5 -15 5 -6 7 7 10 15 7 18 -3 3 -9 -2 -12 -12z"/>
<path d="M1396 3081 c-3 -5 1 -11 9 -15 8 -3 15 -1 15 4 0 13 -18 22 -24 11z"/>
<path d="M1237 2953 c-4 -3 -7 -11 -7 -17 0 -6 5 -5 12 2 6 6 9 14 7 17 -3 3
-9 2 -12 -2z"/>
<path d="M1330 2950 c0 -5 5 -10 11 -10 5 0 7 5 4 10 -3 6 -8 10 -11 10 -2 0
-4 -4 -4 -10z"/>
<path d="M1249 2926 c0 -1 -2 -12 -3 -25 -3 -21 -1 -22 9 -8 7 9 15 14 18 10
4 -3 7 0 7 9 0 11 -23 21 -31 14z"/>
<path d="M1165 2911 c-3 -5 -1 -12 5 -16 5 -3 10 -3 10 1 0 3 7 0 17 -7 15
-13 15 -12 2 9 -15 24 -24 27 -34 13z"/>
<path d="M1120 2890 c-8 -5 -10 -10 -5 -10 6 0 17 5 25 10 8 5 11 10 5 10 -5
0 -17 -5 -25 -10z"/>
<path d="M752 2967 c-40 -41 -40 -70 -3 -108 37 -36 90 -40 122 -8 43 43 0
149 -61 149 -16 0 -38 -12 -58 -33z m93 -2 c27 -26 34 -82 13 -103 -32 -32
-118 5 -118 51 0 20 51 77 70 77 6 0 22 -11 35 -25z"/>
<path d="M380 2910 c0 -8 5 -22 10 -30 9 -13 10 -13 10 0 0 8 -5 22 -10 30 -9
13 -10 13 -10 0z"/>
<path d="M344 2834 c4 -16 12 -33 17 -39 7 -7 7 -1 0 16 -5 15 -7 29 -5 32 3
3 0 8 -7 12 -9 6 -10 0 -5 -21z"/>
<path d="M380 2858 c0 -14 49 -68 55 -59 3 6 1 11 -5 11 -7 0 -9 7 -6 17 4 10
4 14 0 10 -4 -4 -16 0 -26 10 -10 9 -18 14 -18 11z"/>
<path d="M440 2775 c0 -10 3 -15 7 -12 7 8 33 -11 33 -25 0 -5 -6 -6 -12 -2
-8 4 -10 3 -5 -2 5 -5 12 -9 15 -9 4 0 13 -4 20 -9 24 -15 24 1 -1 25 -48 48
-57 53 -57 34z"/>
<path d="M310 2672 c0 -4 8 -15 18 -23 9 -9 32 -32 50 -52 18 -20 37 -37 42
-37 5 0 -16 27 -47 60 -59 62 -63 65 -63 52z"/>
<path d="M370 2662 c0 -4 10 -14 21 -22 12 -8 28 -21 35 -28 8 -7 14 -10 14
-6 0 7 -60 64 -67 64 -2 0 -3 -4 -3 -8z"/>
<path d="M480 2570 c0 -5 5 -10 11 -10 5 0 7 5 4 10 -3 6 -8 10 -11 10 -2 0
-4 -4 -4 -10z"/>
<path d="M446 2548 c3 -5 10 -6 15 -3 13 9 11 12 -6 12 -8 0 -12 -4 -9 -9z"/>
<path d="M537 2519 c12 -12 24 -21 27 -18 2 2 -8 13 -22 23 l-27 19 22 -24z"/>
<path d="M600 2505 c7 -8 16 -15 21 -15 5 0 6 7 3 15 -4 8 -13 15 -21 15 -13
0 -13 -3 -3 -15z"/>
<path d="M1710 2440 c0 -5 5 -10 10 -10 6 0 10 5 10 10 0 6 -4 10 -10 10 -5 0
-10 -4 -10 -10z"/>
<path d="M984 2553 c-23 -4 -81 -59 -72 -68 11 -11 87 8 108 27 17 16 19 23 9
34 -6 8 -14 13 -18 13 -3 -1 -16 -4 -27 -6z"/>
<path d="M775 2521 c-10 -17 4 -31 29 -31 12 0 27 -5 34 -12 18 -18 23 -6 9
22 -13 26 -60 40 -72 21z"/>
<path d="M1420 2321 c0 -10 -9 -30 -20 -44 -21 -26 -27 -53 -10 -42 12 7 50
79 50 95 0 5 -4 10 -10 10 -5 0 -10 -8 -10 -19z"/>
<path d="M1447 2263 c-4 -3 -7 -13 -7 -21 0 -8 -12 -30 -26 -49 -14 -19 -23
-37 -19 -41 9 -9 42 36 56 76 11 33 9 49 -4 35z"/>
<path d="M2170 2280 c0 -5 4 -10 9 -10 6 0 13 5 16 10 3 6 -1 10 -9 10 -9 0
-16 -4 -16 -10z"/>
<path d="M1081 2185 c0 -11 4 -27 9 -35 9 -13 10 -13 9 0 0 8 -4 24 -9 35 -9
20 -9 20 -9 0z"/>
<path d="M2340 2313 c0 -5 10 -18 23 -29 l22 -19 -20 25 c-11 14 -21 27 -22
29 -2 2 -3 0 -3 -6z"/>
<path d="M2383 2245 c0 -8 4 -15 9 -15 4 0 8 4 8 9 0 6 -4 12 -8 15 -5 3 -9
-1 -9 -9z"/>
<path d="M2410 2201 c0 -5 6 -16 14 -23 7 -8 16 -24 20 -35 4 -14 12 -20 21
-16 8 3 12 9 9 14 -3 5 -10 7 -15 4 -5 -4 -9 3 -9 14 0 12 -4 21 -10 21 -5 0
-10 7 -10 15 0 8 -4 15 -10 15 -5 0 -10 -4 -10 -9z"/>
<path d="M2440 2070 c0 -5 5 -10 11 -10 5 0 7 5 4 10 -3 6 -8 10 -11 10 -2 0
-4 -4 -4 -10z"/>
<path d="M2501 2064 c0 -11 3 -14 6 -6 3 7 2 16 -1 19 -3 4 -6 -2 -5 -13z"/>
<path d="M2433 2042 c-7 -4 -9 -13 -5 -19 5 -8 13 -9 22 -3 11 7 12 10 2 10
-7 0 -10 5 -7 10 7 12 4 12 -12 2z"/>
<path d="M2400 1996 c0 -2 7 -9 15 -16 9 -7 15 -8 15 -2 0 5 -7 12 -15 16 -8
3 -15 4 -15 2z"/>
<path d="M2380 1978 c0 -9 -3 -23 -6 -32 -3 -9 -2 -16 4 -16 14 0 21 35 11 51
-7 11 -9 11 -9 -3z"/>
<path d="M2326 1893 c-6 -14 -5 -15 5 -6 7 7 10 15 7 18 -3 3 -9 -2 -12 -12z"/>
<path d="M945 2205 c34 -53 85 -156 85 -171 0 -8 5 -14 11 -14 6 0 8 9 4 23
-13 42 -77 155 -98 174 l-21 18 19 -30z"/>
<path d="M886 2148 c30 -40 62 -92 72 -115 18 -45 38 -60 27 -20 -11 34 -49
97 -95 155 -63 79 -67 62 -4 -20z"/>
<path d="M1080 2030 c0 -5 5 -10 11 -10 5 0 7 5 4 10 -3 6 -8 10 -11 10 -2 0
-4 -4 -4 -10z"/>
<path d="M941 1974 c0 -11 3 -14 6 -6 3 7 2 16 -1 19 -3 4 -6 -2 -5 -13z"/>
<path d="M970 1970 c0 -5 5 -10 11 -10 5 0 7 5 4 10 -3 6 -8 10 -11 10 -2 0
-4 -4 -4 -10z"/>
<path d="M1000 1966 c0 -2 8 -10 18 -17 15 -13 16 -12 3 4 -13 16 -21 21 -21
13z"/>
<path d="M964 1938 c-4 -7 -3 -8 4 -4 7 4 12 1 12 -9 0 -9 5 -13 10 -10 6 3
10 10 10 15 0 13 -29 20 -36 8z"/>
<path d="M568 2203 c7 -3 16 -2 19 1 4 3 -2 6 -13 5 -11 0 -14 -3 -6 -6z"/>
<path d="M560 2179 c0 -5 5 -7 10 -4 6 3 10 8 10 11 0 2 -4 4 -10 4 -5 0 -10
-5 -10 -11z"/>
<path d="M1152 2205 c0 -16 2 -22 5 -12 2 9 2 23 0 30 -3 6 -5 -1 -5 -18z"/>
<path d="M1206 2208 c3 -4 9 -8 15 -8 5 0 9 4 9 8 0 5 -7 9 -15 9 -8 0 -12 -4
-9 -9z"/>
<path d="M1152 2150 c0 -14 2 -19 5 -12 2 6 2 18 0 25 -3 6 -5 1 -5 -13z"/>
<path d="M600 1995 c-5 -14 -7 -32 -4 -40 4 -8 1 -15 -5 -15 -6 0 -10 -15 -10
-32 1 -18 3 -25 6 -15 2 9 9 17 14 17 5 0 9 9 9 21 0 13 4 18 12 13 7 -5 8 -3
3 6 -4 7 -8 26 -7 41 1 36 -5 37 -18 4z"/>
<path d="M703 2008 c3 -9 -1 -22 -8 -28 -8 -7 -13 -16 -10 -20 3 -5 -1 -10 -7
-13 -9 -3 -5 -11 10 -22 15 -11 22 -24 19 -35 -3 -13 0 -17 9 -13 19 7 18 17
-5 37 -25 22 -17 53 8 34 12 -9 11 -7 -2 9 -10 12 -14 24 -9 27 5 3 15 -1 22
-9 7 -8 16 -12 21 -9 5 3 9 0 9 -5 0 -6 7 -11 15 -11 8 0 15 5 15 11 0 5 -4 8
-8 5 -5 -3 -19 4 -30 15 -12 11 -22 16 -22 12 0 -4 -8 1 -17 12 -12 15 -14 16
-10 3z"/>
<path d="M734 1918 c-3 -4 2 -8 10 -8 8 0 17 4 20 8 3 5 -2 9 -10 9 -8 0 -17
-4 -20 -9z"/>
<path d="M779 1913 c-13 -16 -12 -17 4 -4 9 7 17 15 17 17 0 8 -8 3 -21 -13z"/>
<path d="M661 1911 c-15 -10 -6 -31 12 -30 8 0 7 3 -2 6 -11 4 -11 7 0 14 7 4
11 10 8 13 -2 3 -11 1 -18 -3z"/>
<path d="M617 1879 c-3 -12 -10 -18 -16 -14 -6 3 -11 2 -11 -4 0 -5 -3 -18 -6
-28 -4 -13 1 -10 19 9 14 15 28 24 31 21 3 -4 6 1 6 10 0 25 -17 29 -23 6z"/>
<path d="M500 1880 c0 -5 7 -10 15 -10 8 0 15 5 15 10 0 6 -7 10 -15 10 -8 0
-15 -4 -15 -10z"/>
<path d="M544 1861 c0 -11 4 -17 8 -15 4 3 8 12 8 20 0 8 -4 14 -8 14 -4 0 -8
-9 -8 -19z"/>
<path d="M503 1850 c-13 -5 -23 -15 -23 -22 0 -9 3 -9 12 0 17 17 26 15 31 -5
3 -10 4 -6 4 10 -1 15 -2 27 -2 26 0 0 -10 -4 -22 -9z"/>
<path d="M544 1818 c3 -11 -2 -19 -15 -23 -10 -4 -19 -11 -19 -16 0 -14 9 -11
30 9 14 13 16 21 9 32 -9 13 -10 12 -5 -2z"/>
<path d="M1190 1736 c0 -19 26 -22 36 -3 4 6 4 9 -1 5 -4 -4 -14 -3 -22 3 -10
9 -13 8 -13 -5z"/>
<path d="M1605 2350 c-3 -5 -2 -10 4 -10 5 0 13 5 16 10 3 6 2 10 -4 10 -5 0
-13 -4 -16 -10z"/>
<path d="M1622 2335 l-23 -13 30 -10 c27 -10 29 -9 26 10 -6 27 -6 27 -33 13z"/>
<path d="M1700 2331 c0 -6 5 -13 10 -16 6 -3 10 -15 10 -26 0 -10 4 -19 8 -19
12 0 9 44 -4 58 -15 14 -24 16 -24 3z"/>
<path d="M1604 2301 c4 -5 0 -12 -6 -14 -9 -4 -9 -6 1 -6 11 -1 10 -5 -5 -16
-12 -9 -15 -18 -9 -22 17 -14 17 -36 0 -29 -9 3 -14 2 -10 -3 3 -5 -1 -11 -7
-14 -7 -2 2 -11 20 -21 17 -9 32 -13 32 -8 0 5 -10 14 -22 20 l-23 10 25 -1
c14 0 30 -3 35 -6 6 -3 -1 4 -15 17 l-25 24 24 -7 c16 -5 21 -4 17 4 -4 6 -1
11 6 11 8 0 9 3 3 8 -13 9 -18 32 -7 32 4 0 13 -5 20 -12 7 -7 12 -8 12 -2 0
6 -16 18 -36 27 -19 10 -33 13 -30 8z m16 -41 c-12 -8 -12 -10 -1 -10 8 0 12
-3 8 -6 -3 -4 -14 -3 -24 0 -15 6 -15 8 -3 16 8 6 20 10 25 10 6 0 3 -5 -5
-10z"/>
<path d="M1688 2258 c-2 -42 -3 -47 -10 -54 -4 -3 -3 -15 3 -26 6 -11 8 -26 5
-34 -3 -9 -1 -12 4 -9 6 4 10 18 10 33 -1 15 2 43 5 63 4 22 2 40 -4 44 -7 3
-12 -3 -13 -17z"/>
<path d="M1580 2155 l25 -15 -27 4 c-37 6 -42 -4 -16 -31 22 -24 13 -33 -12
-10 -11 9 -11 8 0 -7 13 -17 13 -19 0 -14 -23 8 -23 -26 0 -40 16 -10 18 -8
14 13 -3 20 -1 23 12 18 12 -4 15 -3 10 5 -4 7 -2 12 5 12 6 0 1 9 -12 20 -24
19 -24 20 -2 17 11 -2 29 -9 40 -17 17 -14 17 -13 -1 8 -11 12 -15 22 -10 22
5 0 0 7 -10 15 -11 8 -25 15 -30 15 -6 -1 0 -7 14 -15z"/>
<path d="M1621 2033 c-18 -32 -46 -79 -63 -106 -17 -26 -29 -50 -26 -52 9 -9
38 7 38 20 0 8 7 21 15 29 16 16 84 144 85 159 0 22 -21 0 -49 -50z"/>
<path d="M1790 2082 c0 -5 7 -15 15 -22 8 -7 15 -8 15 -2 0 5 -7 15 -15 22 -8
7 -15 8 -15 2z"/>
<path d="M1786 2048 c4 -7 15 -22 24 -33 10 -11 25 -33 33 -50 10 -17 16 -23
17 -14 0 15 -65 109 -76 109 -3 0 -2 -6 2 -12z"/>
<path d="M1518 2023 c-2 -10 3 -29 11 -43 l15 -25 -22 19 c-12 11 -25 16 -29
13 -3 -4 -3 -7 2 -7 4 0 2 -6 -4 -13 -8 -11 -6 -18 10 -33 22 -19 22 -19 10 3
-16 31 -14 38 7 19 18 -15 19 -15 28 6 6 13 9 28 9 33 -3 19 -17 45 -25 45 -5
0 -10 -8 -12 -17z m28 -29 c2 -12 -1 -13 -12 -3 -7 6 -11 16 -8 21 7 11 17 3
20 -18z"/>
<path d="M1792 1991 c18 -22 34 -38 36 -36 6 6 -49 75 -60 75 -5 0 6 -18 24
-39z"/>
<path d="M1840 2021 c0 -5 7 -15 17 -22 15 -13 15 -12 4 9 -12 23 -21 28 -21
13z"/>
<path d="M1768 1978 c15 -15 16 -32 2 -23 -10 6 -14 -8 -10 -34 2 -13 0 -13
-16 0 -16 13 -16 11 1 -18 11 -18 24 -33 29 -33 6 0 5 5 -2 12 -14 14 -16 32
-2 23 6 -3 7 1 4 9 -10 26 4 18 20 -11 8 -16 15 -23 16 -17 0 5 -7 19 -15 30
-22 29 -17 43 5 15 11 -13 20 -20 20 -16 0 15 -42 75 -53 75 -8 0 -7 -4 1 -12z"/>
<path d="M1485 1910 c10 -11 20 -20 22 -20 2 0 -1 9 -7 20 -6 11 -16 20 -22
20 -6 0 -3 -9 7 -20z"/>
<path d="M1480 1882 c6 -13 14 -21 18 -18 3 4 -2 14 -12 24 -18 16 -18 16 -6
-6z"/>
<path d="M1720 1892 c0 -7 9 -22 20 -34 26 -28 26 -11 0 22 -11 14 -20 19 -20
12z"/>
<path d="M1464 1851 c3 -18 6 -40 6 -47 0 -8 4 -14 9 -14 12 0 2 71 -12 85 -6
7 -8 -1 -3 -24z"/>
<path d="M1666 1830 l7 -25 -23 20 c-23 20 -23 20 -12 0 6 -11 18 -29 27 -40
16 -20 16 -20 9 4 -4 16 -3 21 5 17 16 -10 13 7 -5 30 -14 18 -15 18 -8 -6z"/>
<path d="M2 1820 c0 -14 2 -19 5 -12 2 6 2 18 0 25 -3 6 -5 1 -5 -13z"/>
<path d="M1533 1828 c-19 -24 -24 -38 -15 -38 5 0 14 11 20 25 13 27 10 32 -5
13z"/>
<path d="M1620 1793 c13 -18 26 -30 29 -28 3 3 -8 18 -23 33 l-29 27 23 -32z"/>
<path d="M1585 1789 c-6 -8 -4 -10 5 -4 9 5 10 2 6 -11 -3 -11 -2 -25 3 -32 6
-10 10 -8 14 10 8 27 -16 58 -28 37z"/>
<path d="M1567 1762 c3 -12 9 -25 14 -28 14 -8 11 10 -6 32 -13 18 -14 18 -8
-4z"/>
<path d="M1548 1745 c2 -14 8 -25 12 -25 10 0 1 38 -10 45 -4 2 -5 -7 -2 -20z"/>
<path d="M1502 1748 c-19 -19 -14 -30 11 -26 12 2 22 9 22 17 0 19 -18 24 -33
9z"/>
<path d="M460 1631 c0 -5 7 -12 16 -15 14 -5 15 -4 4 9 -14 17 -20 19 -20 6z"/>
<path d="M1390 1512 c0 -11 7 -25 15 -32 9 -7 13 -15 10 -18 -3 -3 -15 3 -27
14 -19 17 -21 17 -15 2 4 -10 2 -18 -3 -18 -15 0 -12 -17 4 -23 10 -4 13 -1 9
9 -6 16 12 20 22 4 3 -5 11 -10 16 -10 6 0 7 5 4 10 -3 6 -1 10 6 10 8 0 7 5
-2 16 -8 9 -14 24 -14 32 0 8 -6 17 -12 19 -8 3 -13 -4 -13 -15z"/>
<path d="M1420 1495 c0 -2 10 -10 23 -16 20 -11 21 -11 8 4 -13 16 -31 23 -31
12z"/>
<path d="M900 1443 c0 -21 31 -93 41 -93 5 0 9 3 9 8 -1 14 -49 97 -50 85z"/>
<path d="M1340 1443 c0 -12 38 -48 45 -41 3 2 -6 15 -20 28 -14 13 -25 19 -25
13z"/>
<path d="M955 1400 c3 -19 10 -39 15 -44 15 -15 12 14 -6 49 l-14 30 5 -35z"/>
<path d="M1320 1422 c0 -5 7 -13 16 -16 10 -4 14 -1 12 6 -5 15 -28 23 -28 10z"/>
<path d="M1300 1414 c0 -6 6 -16 13 -24 6 -8 2 -6 -10 4 -28 24 -31 6 -3 -19
12 -11 20 -13 20 -6 0 7 10 9 28 6 24 -6 25 -5 7 6 -11 6 -28 19 -37 27 -10 8
-18 11 -18 6z"/>
<path d="M990 1399 c-13 -8 -13 -11 3 -23 9 -7 17 -18 17 -25 0 -6 5 -11 11
-11 6 0 8 9 3 23 -12 40 -18 47 -34 36z"/>
<path d="M1025 1390 c10 -33 35 -70 47 -70 5 0 0 17 -13 38 -31 51 -43 63 -34
32z"/>
<path d="M1250 1406 c0 -14 43 -76 53 -76 9 0 -4 25 -32 60 -12 14 -21 21 -21
16z"/>
<path d="M1210 1395 c0 -14 31 -65 40 -65 16 0 12 10 -15 42 -14 16 -25 27
-25 23z"/>
<path d="M1100 1382 c0 -6 -7 -9 -15 -6 -8 4 -15 3 -15 0 0 -7 50 -56 56 -56
3 0 -17 63 -22 69 -2 2 -4 -1 -4 -7z"/>
<path d="M1130 1368 c0 -23 11 -48 21 -48 14 0 11 24 -6 46 -12 16 -14 17 -15
2z"/>
<path d="M1174 1357 c3 -12 6 -25 6 -29 0 -5 5 -8 11 -8 6 0 8 10 5 23 -3 12
-3 16 0 10 3 -7 10 -13 15 -13 17 0 -7 33 -26 36 -13 2 -16 -3 -11 -19z"/>
</g>
</svg>
